<?xml version="1.0" encoding="utf-8"?>
<!-- Generator: Adobe Illustrator 24.2.3, SVG Export Plug-In . SVG Version: 6.00 Build 0)  -->
<svg version="1.1" id="Calque_1" xmlns="http://www.w3.org/2000/svg" xmlns:xlink="http://www.w3.org/1999/xlink" x="0px" y="0px"
	 viewBox="0 0 477.33 274.67" style="enable-background:new 0 0 477.33 274.67;" xml:space="preserve">
<style type="text/css">
	.st0{fill:#FFFFFF;}
	.st1{fill:#88BF50;}
	.st2{fill:#88BF50;stroke:#FFFFFF;stroke-width:3.4947;stroke-miterlimit:10;}
	.st3{fill:#88BF50;stroke:#FFFFFF;stroke-width:3.441;stroke-miterlimit:10;}
	.st4{fill:#88BF50;stroke:#FFFFFF;stroke-width:2.2312;stroke-miterlimit:10;}
	.st5{fill:#3D7740;stroke:#FFFFFF;stroke-width:1.9468;stroke-miterlimit:10;}
	.st6{fill:#3D7740;stroke:#FFFFFF;stroke-width:1.4601;stroke-miterlimit:10;}
	.st7{fill:#337831;}
</style>
<path class="st0" d="M158.94,130.09l-4.65,40.87c-0.29,2.55,1.7,4.78,4.27,4.78h244.89c1.33,0,2.58-0.61,3.39-1.66l10.84-14
	c2-2.59,1.72-6.27-0.64-8.52l-2.27-2.16c-2.84-2.71-6.04-5.03-9.5-6.89l-1.06-0.57c-1.56-0.84-2.44-2.54-2.23-4.3l0.83-6.86
	c0.31-2.56-1.69-4.82-4.27-4.81l-235.36,0.32C161.02,126.28,159.19,127.92,158.94,130.09z"/>
<g>
	<path class="st7" d="M422.82,170.59c-0.63-0.86-0.97-1.98-1.03-3.36c-0.07-1.38,0.03-2.73,0.28-4.07c0.25-1.33,0.67-2.49,1.26-3.47
		c0.59-0.98,1.23-1.51,1.91-1.58c0.76-0.08,1.74,0.09,2.94,0.51c1.2,0.42,2.41,0.97,3.63,1.65c1.22,0.68,2.31,1.38,3.27,2.09
		c0.96,0.71,1.54,1.36,1.76,1.95c0.29,0.59,0.43,1.53,0.41,2.84c-0.02,1.31-0.14,2.63-0.35,3.96c-0.21,1.33-0.57,2.52-1.08,3.57
		c-0.51,1.05-1.1,1.61-1.79,1.68c-0.69,0.07-1.54-0.02-2.57-0.26c-1.02-0.24-2.08-0.63-3.18-1.18c-1.09-0.54-2.12-1.19-3.08-1.94
		C424.24,172.25,423.45,171.45,422.82,170.59z M439.4,155.28c-0.13,0.67-0.58,1.05-1.36,1.13c-0.65,0.07-1.46-0.06-2.41-0.4
		c-0.96-0.33-1.88-0.73-2.79-1.2c-0.9-0.47-1.66-0.98-2.28-1.54c-0.62-0.56-0.95-1.04-0.98-1.43c-0.19-1.82,0.01-4.58,0.59-8.26
		c0.58-3.68,1.38-7.76,2.4-12.24c1.02-4.48,2.15-9.11,3.37-13.87c1.22-4.77,2.39-9.15,3.5-13.14c1.11-4,2.07-7.34,2.88-10.02
		c0.81-2.68,1.3-4.2,1.46-4.54c0.21-0.48,0.71-0.76,1.49-0.84c0.78-0.08,1.72,0.07,2.81,0.45c1.09,0.38,2.17,0.91,3.22,1.6
		c1.06,0.68,1.96,1.48,2.71,2.39c0.75,0.91,1.18,1.85,1.28,2.83c0.12,1.17-0.39,3.64-1.51,7.41c-1.13,3.77-2.54,8.36-4.22,13.76
		c-1.69,5.41-3.46,11.38-5.33,17.92C442.36,141.83,440.75,148.5,439.4,155.28z"/>
	<path class="st0" d="M433.53,178.39c-0.75,0-1.58-0.11-2.53-0.33c-1.17-0.28-2.38-0.72-3.6-1.33c-1.21-0.6-2.36-1.32-3.42-2.15
		c-1.11-0.87-2.04-1.81-2.77-2.81c-0.86-1.18-1.33-2.67-1.41-4.44c-0.07-1.51,0.03-3.04,0.31-4.52c0.29-1.57,0.8-2.96,1.51-4.14
		c0.93-1.54,2.08-2.4,3.42-2.54c1.06-0.11,2.3,0.09,3.8,0.61c1.3,0.45,2.63,1.06,3.95,1.79c1.29,0.72,2.46,1.47,3.49,2.23
		c1.24,0.92,2.03,1.83,2.41,2.77c0.41,0.88,0.59,2.05,0.57,3.66c-0.02,1.41-0.15,2.83-0.37,4.24c-0.24,1.51-0.66,2.9-1.25,4.13
		c-1.03,2.14-2.41,2.7-3.38,2.8C434.01,178.38,433.77,178.39,433.53,178.39z M425.53,160.09c-0.07,0.06-0.25,0.22-0.49,0.63
		c-0.47,0.77-0.81,1.72-1.01,2.81c-0.22,1.18-0.3,2.39-0.24,3.6c0.04,0.98,0.26,1.74,0.65,2.27l0,0c0.51,0.7,1.18,1.37,1.99,2.01
		c0.85,0.66,1.77,1.24,2.74,1.72c0.95,0.47,1.88,0.82,2.75,1.02c0.85,0.2,1.4,0.24,1.74,0.22c0.07-0.08,0.2-0.25,0.35-0.57
		c0.42-0.87,0.73-1.89,0.9-3.01c0.19-1.22,0.3-2.46,0.32-3.68c0.02-1.44-0.18-1.88-0.2-1.92l-0.09-0.21l0,0c0,0-0.16-0.36-1.07-1.03
		c-0.88-0.66-1.91-1.31-3.05-1.95c-1.11-0.62-2.23-1.13-3.31-1.51C426.43,160.13,425.82,160.08,425.53,160.09z M425.56,160.07
		L425.56,160.07L425.56,160.07z M437.69,158.43c-0.81,0-1.71-0.17-2.72-0.52c-1.04-0.36-2.07-0.8-3.05-1.31
		c-1.05-0.54-1.96-1.16-2.71-1.84c-0.64-0.58-1.5-1.5-1.63-2.7c-0.21-2.02-0.01-4.88,0.6-8.77c0.58-3.69,1.4-7.85,2.43-12.38
		c1.04-4.56,2.18-9.24,3.39-13.92c1.23-4.8,2.41-9.23,3.5-13.18c1.09-3.94,2.06-7.33,2.89-10.07c1.25-4.14,1.46-4.59,1.56-4.81
		c0.28-0.63,1.08-1.79,3.11-1.99c1.08-0.11,2.29,0.07,3.67,0.56c1.24,0.43,2.46,1.04,3.65,1.8c1.22,0.79,2.29,1.73,3.17,2.8
		c1.01,1.22,1.58,2.53,1.72,3.9c0.1,1,0.01,2.84-1.59,8.19c-1.16,3.87-2.58,8.5-4.23,13.78c-1.68,5.38-3.47,11.4-5.31,17.88
		c-1.84,6.46-3.45,13.13-4.78,19.83c-0.3,1.54-1.46,2.56-3.13,2.73C438.06,158.42,437.87,158.43,437.69,158.43z M431.54,151.42
		c0.06,0.07,0.17,0.2,0.36,0.37c0.49,0.44,1.11,0.86,1.85,1.24c0.82,0.42,1.66,0.79,2.52,1.08c0.59,0.2,0.99,0.28,1.26,0.3
		c1.33-6.64,2.93-13.26,4.77-19.68c1.86-6.51,3.65-12.56,5.34-17.97c1.64-5.26,3.06-9.89,4.22-13.74c1.47-4.89,1.47-6.31,1.44-6.63
		c-0.06-0.58-0.33-1.16-0.83-1.76c-0.62-0.75-1.38-1.42-2.25-1.98c-0.92-0.59-1.86-1.06-2.8-1.39c-1-0.35-1.61-0.38-1.94-0.35
		c-0.16,0.47-0.51,1.53-1.25,3.98c-0.82,2.7-1.78,6.06-2.86,9.97c-1.09,3.92-2.26,8.33-3.49,13.11c-1.2,4.65-2.33,9.3-3.36,13.82
		c-1.01,4.43-1.81,8.51-2.38,12.11C431.61,147.24,431.41,149.77,431.54,151.42z"/>
</g>
<g>
	<g>
		<path class="st1" d="M398.2,203.13l-245.94-0.64c0,0-10.05,37.34,11.69,38.37c19.96,0.95,155.58,0.7,215.26,0.7
			c26.86,0,24.75-28.48,23.65-36.38L398.2,203.13z"/>
		<path class="st0" d="M298.53,243.59c-58.44,0-121.55-0.11-134.68-0.73c-5.04-0.24-8.98-2.25-11.69-5.98
			c-8.11-11.13-2.1-33.95-1.84-34.91l0.4-1.48l247.9,0.65l6.06,2.66l0.15,1.11c0.85,6.13,1.95,21.41-6.31,30.9
			c-4.48,5.15-10.98,7.76-19.32,7.76c-9.37,0-20.52,0.01-32.84,0.01C331.67,243.58,315.29,243.59,298.53,243.59z M153.83,204.49
			c-1.15,5.08-4.36,21.92,1.57,30.03c2,2.74,4.82,4.15,8.65,4.33c16.79,0.8,116.41,0.75,182.32,0.71
			c12.16-0.01,23.23-0.01,32.49-0.01c0.12,0,0.24,0,0.35,0c7.13,0,12.61-2.15,16.3-6.39c6.85-7.87,6.13-21.25,5.51-26.62l-3.24-1.42
			L153.83,204.49z"/>
	</g>
	<g>
		<polygon class="st1" points="431.03,220.98 405.8,175.74 144.74,178.17 124.53,226.36 156.25,203.37 396.34,205.76 402.2,208.33 
					"/>
		<path class="st0" d="M119.92,232.17l23.48-55.98l1.32-0.01l262.25-2.45l28.71,51.47l-39.77-17.45l-239.01-2.37L119.92,232.17z
			 M146.07,180.16l-16.94,40.4l26.48-19.19l0.66,0.01l240.49,2.39l29.62,12.99l-21.76-39.01L146.07,180.16z"/>
	</g>
	<g>
		<path class="st1" d="M404.07,103.75c0,0,6.03-79.01-125.34-79.01S153.8,103.96,153.8,103.96L404.07,103.75z"/>
		<path class="st0" d="M151.95,105.96l-0.15-1.84c-0.08-1-1.77-24.87,18.4-46.75c21.18-22.98,57.69-34.63,108.52-34.63
			c50.89,0,87.49,11.65,108.77,34.62c20.2,21.8,18.64,45.54,18.56,46.54l-0.14,1.85l-1.85,0L151.95,105.96z M278.73,26.75
			c-49.6,0-85.1,11.19-105.51,33.26c-15.89,17.19-17.4,36.08-17.46,41.95l246.35-0.2c-0.09-5.86-1.71-24.64-17.6-41.75
			C363.99,37.94,328.4,26.75,278.73,26.75z"/>
	</g>
	<g>
		<path class="st1" d="M401.02,126.28c0,0,11.97,0,11.16-13.94c-0.42-7.21-5.43-7-5.43-7h-242.1c0,0-2.65-1.6-4.85,7.6
			c-2.2,9.2,4.85,13.34,4.85,13.34H401.02z"/>
		<path class="st0" d="M401.02,128.28H164.11l-0.47-0.28c-2.88-1.7-7.8-7.12-5.78-15.54c1.25-5.22,2.83-8.06,4.97-8.96
			c0.8-0.34,1.56-0.33,2.16-0.17h241.76c2.31-0.1,7,1.62,7.42,8.88c0.29,5.06-0.92,9.07-3.61,11.92
			C406.7,128.24,401.25,128.28,401.02,128.28z M165.27,124.28h235.75c0.04,0,4.02-0.07,6.67-2.91c1.89-2.02,2.73-5.02,2.5-8.91
			c-0.28-4.87-2.87-5.11-3.38-5.11l-242.6,0c-0.4,0.39-1.42,1.75-2.46,6.06C160.2,119.86,163.97,123.32,165.27,124.28z"/>
	</g>
</g>
<g>
	<g>
		<path class="st7" d="M44.77,183.5c2,0,4.34-1.17,7-3.5c2.67-2.33,5.55-5.45,8.65-9.36c3.1-3.91,6.31-8.41,9.65-13.51
			c3.33-5.1,6.67-10.46,10.01-16.08c3.33-5.62,6.6-11.29,9.79-17.01c3.19-5.72,6.12-11.12,8.79-16.22c2.67-5.1,5.05-9.72,7.15-13.86
			c2.1-4.14,3.76-7.41,5-9.79c-2.77,0.38-5.89,1.22-9.36,2.5c-3.48,1.29-7.03,3.36-10.65,6.22c-4.1,3.15-7.43,6.29-10.01,9.43
			c-2.57,3.14-4.62,5.96-6.15,8.43c-1.52,2.48-2.64,4.48-3.36,6c-0.71,1.53-1.26,2.29-1.64,2.29c-0.38,0-0.91-0.38-1.57-1.14
			c-0.67-0.76-1.33-1.74-2-2.93c-0.67-1.19-1.26-2.5-1.79-3.93c-0.53-1.43-0.79-2.76-0.79-4c0-4.29,0.98-8.15,2.93-11.58
			c1.95-3.43,4.53-6.45,7.72-9.08c3.19-2.62,6.81-4.86,10.86-6.72c4.05-1.86,8.19-3.38,12.44-4.57c4.24-1.19,8.38-2.07,12.44-2.64
			c4.05-0.57,7.65-0.86,10.79-0.86c3.14,0,5.86,0.45,8.15,1.36c2.29,0.91,4.15,1.93,5.57,3.07c1.43,1.14,2.45,2.29,3.07,3.43
			c0.62,1.14,0.88,1.95,0.79,2.43c-0.1,0.38-0.62,1.93-1.57,4.65c-0.95,2.72-2.07,6.34-3.36,10.86c-1.29,4.53-2.62,9.79-4,15.79
			c-1.38,6-2.6,12.53-3.64,19.58c1.24-2.86,2.88-6.26,4.93-10.22c2.05-3.95,4.41-8.08,7.08-12.36c2.67-4.29,5.6-8.55,8.79-12.79
			c3.19-4.24,6.55-8.03,10.08-11.36c3.52-3.33,7.17-6.03,10.93-8.08c3.76-2.05,7.55-3.07,11.36-3.07c1.91,0,3.43,0.41,4.57,1.22
			c1.14,0.81,1.72,1.98,1.72,3.5c0,0.76-0.52,2.5-1.57,5.22c-1.05,2.72-2.41,6.1-4.07,10.15c-1.67,4.05-3.5,8.65-5.5,13.79
			c-2,5.15-3.93,10.53-5.79,16.15c-1.86,5.62-3.53,11.34-5,17.15c-1.48,5.81-2.5,11.43-3.07,16.87c-0.76,6.86-0.5,13.03,0.79,18.51
			c1.29,5.48,2.83,10.15,4.64,14.01c1.81,3.86,3.5,6.88,5.07,9.08c1.57,2.19,2.26,3.43,2.07,3.72c-0.86,0.86-1.91,1.43-3.14,1.72
			c-1.24,0.29-2.43,0.43-3.57,0.43c-1.14,0-2.6-0.14-4.36-0.43c-1.76-0.29-3.57-0.93-5.43-1.93s-3.62-2.45-5.29-4.36
			c-1.67-1.91-2.98-4.43-3.93-7.58c-1.43-4.77-2.31-9.72-2.64-14.86c-0.17-2.57-0.25-5.14-0.23-7.7s0.11-5.12,0.3-7.67
			c0.38-5.1,1.07-10.12,2.07-15.08c1-4.95,2.12-9.62,3.36-14.01c2.95-10.39,6.81-20.58,11.58-30.59c-2.86,2.86-5.77,6.29-8.72,10.29
			c-2.48,3.53-5.15,7.86-8,13.01c-2.86,5.15-5.53,11.15-8,18.01c-1.53,4.29-2.62,8.24-3.29,11.86c-0.67,3.62-1.12,6.77-1.36,9.43
			c-0.24,2.67-0.38,4.81-0.43,6.43c-0.05,1.62-0.21,2.57-0.5,2.86c-0.95,0.95-2.07,1.57-3.36,1.86c-1.29,0.29-2.6,0.43-3.93,0.43
			c-0.95,0-2.05-0.14-3.29-0.43c-1.24-0.29-2.48-0.95-3.72-2c-1.24-1.05-2.41-2.55-3.5-4.5c-1.1-1.95-2.03-4.6-2.79-7.93
			c-0.67-2.76-1-6.34-1-10.72c0-4.38,0.24-9.08,0.71-14.08c0.48-5,1.12-10.08,1.93-15.22c0.81-5.15,1.69-9.86,2.64-14.15
			c-2.48,5.62-5.41,11.84-8.79,18.65c-3.38,6.81-7.05,13.65-11.01,20.51c-3.95,6.86-8.12,13.53-12.51,20.01
			c-4.38,6.48-8.84,12.22-13.36,17.22c-4.53,5-9.03,9.03-13.51,12.08c-4.48,3.05-8.77,4.57-12.86,4.57c-4,0-7.34-0.64-10.01-1.93
			c-2.67-1.29-4.81-2.91-6.43-4.86c-1.62-1.95-2.76-4.12-3.43-6.5c-0.67-2.38-0.95-4.72-0.86-7c0.09-2.57,0.62-4.93,1.57-7.08
			c0.95-2.14,2.22-3.98,3.79-5.5c1.57-1.52,3.38-2.72,5.43-3.57c2.05-0.86,4.17-1.29,6.36-1.29c1.62,0,2.88,0.17,3.79,0.5
			c0.9,0.34,1.59,0.69,2.07,1.07c0.48,0.57,0.81,1.14,1,1.72c-0.95,0.57-1.91,1.24-2.86,2c-0.76,0.76-1.55,1.6-2.36,2.5
			c-0.81,0.91-1.45,2.03-1.93,3.36c-0.38,1.14-0.6,2.29-0.64,3.43c-0.05,1.14,0.14,2.17,0.57,3.07c0.43,0.9,1.12,1.67,2.07,2.29
			C41.87,183.19,43.15,183.5,44.77,183.5z"/>
		<path class="st0" d="M165.98,208.37c-1.26,0-2.79-0.15-4.68-0.45c-1.98-0.32-4.02-1.04-6.06-2.14c-2.06-1.11-4.03-2.73-5.85-4.8
			c-1.85-2.12-3.31-4.91-4.34-8.31c-1.47-4.89-2.38-10.05-2.73-15.32c-0.17-2.61-0.25-5.24-0.24-7.84s0.12-5.22,0.31-7.8
			c0.38-5.14,1.09-10.3,2.11-15.33c1.01-5,2.15-9.76,3.4-14.16c1.75-6.14,3.82-12.27,6.21-18.31c-2.35,3.36-4.94,7.59-7.69,12.54
			c-2.79,5.03-5.44,10.99-7.87,17.72c-1.48,4.16-2.56,8.05-3.2,11.55c-0.66,3.56-1.1,6.67-1.33,9.25c-0.23,2.62-0.38,4.74-0.42,6.31
			c-0.07,2.36-0.37,3.5-1.09,4.22c-1.22,1.22-2.68,2.03-4.34,2.39c-1.42,0.32-2.89,0.48-4.37,0.48c-1.1,0-2.36-0.16-3.74-0.48
			c-1.55-0.36-3.09-1.17-4.56-2.43c-1.41-1.19-2.75-2.89-3.95-5.05c-1.2-2.14-2.18-4.91-2.99-8.47c-0.7-2.88-1.05-6.64-1.05-11.17
			c0-4.45,0.24-9.25,0.72-14.27c0.44-4.62,1.03-9.35,1.75-14.09c-0.71,1.46-1.44,2.94-2.18,4.45c-3.38,6.8-7.1,13.74-11.06,20.62
			c-3.96,6.87-8.19,13.64-12.58,20.13c-4.41,6.52-8.97,12.39-13.54,17.44c-4.61,5.09-9.27,9.26-13.86,12.39
			c-4.8,3.26-9.51,4.92-13.99,4.92c-4.29,0-7.95-0.72-10.87-2.13c-2.92-1.4-5.3-3.22-7.1-5.38c-1.79-2.16-3.08-4.6-3.82-7.24
			c-0.72-2.57-1.03-5.14-0.93-7.63c0.1-2.81,0.69-5.44,1.74-7.81c1.05-2.36,2.47-4.43,4.22-6.13c1.75-1.7,3.79-3.04,6.05-3.98
			c2.28-0.96,4.68-1.44,7.13-1.44c1.87,0,3.34,0.2,4.48,0.62c1.12,0.41,1.97,0.87,2.63,1.38l0.3,0.29c0.63,0.76,1.09,1.55,1.36,2.36
			l0.51,1.52l-1.38,0.83c-0.85,0.51-1.7,1.11-2.55,1.78c-0.72,0.72-1.46,1.51-2.2,2.34c-0.63,0.71-1.15,1.62-1.54,2.7
			c-0.31,0.92-0.49,1.89-0.53,2.84c-0.04,0.82,0.09,1.52,0.38,2.14c0.27,0.57,0.71,1.05,1.36,1.46c0.62,0.4,1.55,0.6,2.77,0.6
			c1.47,0,3.44-1.04,5.69-3.01c2.57-2.25,5.39-5.31,8.4-9.1c3.05-3.84,6.26-8.34,9.54-13.36c3.29-5.03,6.64-10.42,9.96-16.01
			c3.3-5.56,6.58-11.27,9.76-16.96c3.19-5.72,6.14-11.16,8.76-16.18c2.63-5.02,5.03-9.67,7.13-13.84c1.17-2.3,2.2-4.34,3.1-6.1
			c-1.56,0.41-3.23,0.94-4.98,1.59c-3.27,1.21-6.67,3.2-10.1,5.91c-3.98,3.05-7.23,6.12-9.7,9.13c-2.51,3.07-4.52,5.83-5.99,8.21
			c-1.48,2.4-2.57,4.35-3.25,5.81c-0.81,1.74-1.75,3.44-3.45,3.44c-1.32,0-2.34-0.98-3.08-1.83c-0.75-0.86-1.51-1.96-2.24-3.27
			c-0.72-1.27-1.36-2.69-1.92-4.22c-0.6-1.64-0.91-3.22-0.91-4.69c0-4.62,1.07-8.85,3.19-12.57c2.06-3.63,4.82-6.87,8.19-9.63
			c3.31-2.72,7.11-5.07,11.3-6.99c4.11-1.89,8.39-3.46,12.73-4.68c4.32-1.21,8.59-2.12,12.7-2.7c4.13-0.58,7.85-0.88,11.07-0.88
			c3.38,0,6.37,0.5,8.88,1.5c2.47,0.98,4.52,2.11,6.09,3.37c1.65,1.32,2.82,2.64,3.58,4.04c0.88,1.63,1.18,2.79,0.99,3.77l-0.02,0.1
			c-0.08,0.32-0.34,1.14-1.62,4.82c-0.93,2.64-2.05,6.26-3.32,10.75c-1.28,4.51-2.62,9.79-3.98,15.7c-0.42,1.84-0.84,3.75-1.23,5.71
			c1.78-3.3,3.78-6.73,5.95-10.22c2.68-4.31,5.67-8.67,8.89-12.94c3.24-4.31,6.71-8.22,10.3-11.61c3.63-3.44,7.45-6.26,11.35-8.38
			c4.04-2.2,8.19-3.32,12.32-3.32c2.32,0,4.25,0.53,5.73,1.58c1.68,1.19,2.56,2.96,2.56,5.13c0,0.75-0.2,2.04-1.71,5.94
			c-1.06,2.75-2.44,6.17-4.09,10.19c-1.65,4-3.49,8.63-5.49,13.76c-1.98,5.08-3.91,10.49-5.75,16.06
			c-1.84,5.56-3.51,11.29-4.96,17.02c-1.44,5.68-2.46,11.26-3.02,16.58c-0.74,6.61-0.48,12.61,0.75,17.84
			c1.25,5.32,2.77,9.9,4.51,13.62c1.74,3.72,3.39,6.67,4.89,8.76c2.15,3,3.06,4.56,2.11,5.99l-0.25,0.31
			c-1.12,1.12-2.5,1.88-4.11,2.25C168.62,208.21,167.27,208.37,165.98,208.37z M168.21,92.54l-5,10.49
			c-4.7,9.86-8.55,20.04-11.46,30.28c-1.21,4.29-2.33,8.95-3.32,13.86c-0.98,4.86-1.67,9.85-2.04,14.83
			c-0.19,2.49-0.29,5.02-0.3,7.53s0.06,5.05,0.23,7.56c0.32,4.97,1.19,9.82,2.56,14.42c0.86,2.85,2.05,5.15,3.52,6.83
			c1.5,1.71,3.09,3.03,4.73,3.92c1.65,0.89,3.27,1.47,4.8,1.72c1.65,0.27,3.01,0.4,4.04,0.4c0.98,0,2.04-0.13,3.13-0.38
			c0.43-0.1,0.82-0.24,1.18-0.43c-0.27-0.42-0.67-1.03-1.28-1.88c-1.64-2.29-3.41-5.45-5.26-9.39c-1.86-3.96-3.47-8.81-4.78-14.4
			c-1.33-5.68-1.61-12.14-0.83-19.19c0.58-5.5,1.63-11.27,3.12-17.14c1.48-5.82,3.17-11.63,5.04-17.29
			c1.86-5.63,3.82-11.1,5.82-16.25c2-5.16,3.86-9.81,5.52-13.83c1.64-3.99,3.01-7.39,4.06-10.11c1.34-3.48,1.43-4.36,1.44-4.5
			c0-1.1-0.44-1.56-0.87-1.87c-0.79-0.56-1.94-0.85-3.42-0.85c-3.46,0-6.96,0.95-10.41,2.83c-3.6,1.96-7.14,4.57-10.52,7.77
			c-3.43,3.24-6.74,6.98-9.85,11.11c-3.15,4.18-6.07,8.43-8.69,12.65c-2.62,4.21-4.97,8.32-7,12.23c-2.02,3.9-3.66,7.29-4.87,10.09
			l-6.06,13.99l2.24-15.08c1.05-7.08,2.29-13.72,3.67-19.74c1.37-5.97,2.73-11.32,4.03-15.89c1.3-4.57,2.44-8.26,3.4-10.98
			c0.97-2.77,1.33-3.84,1.46-4.25c-0.05-0.17-0.18-0.54-0.54-1.21c-0.49-0.9-1.35-1.85-2.56-2.82c-1.26-1.01-2.97-1.95-5.06-2.78
			c-4.2-1.66-10.24-1.46-17.92-0.38c-3.93,0.55-8.03,1.43-12.17,2.59c-4.13,1.16-8.22,2.67-12.14,4.47
			c-3.87,1.78-7.38,3.95-10.43,6.45c-2.99,2.45-5.43,5.32-7.25,8.52c-1.77,3.11-2.67,6.67-2.67,10.59c0,1,0.22,2.11,0.66,3.31
			c0.48,1.32,1.04,2.55,1.65,3.64c0.5,0.9,1,1.66,1.49,2.27c0.05-0.11,0.11-0.23,0.17-0.35c0.74-1.59,1.91-3.67,3.47-6.2
			c1.56-2.54,3.68-5.45,6.3-8.65c2.66-3.25,6.14-6.53,10.34-9.75c3.74-2.96,7.51-5.15,11.17-6.51c3.6-1.33,6.89-2.21,9.78-2.61
			l3.83-0.53l-1.79,3.43c-1.24,2.38-2.9,5.63-4.99,9.77c-2.12,4.18-4.53,8.86-7.16,13.89c-2.64,5.05-5.61,10.52-8.82,16.27
			c-3.2,5.73-6.5,11.46-9.82,17.05c-3.35,5.64-6.73,11.07-10.05,16.15c-3.35,5.12-6.63,9.72-9.75,13.66
			c-3.16,3.98-6.15,7.22-8.9,9.63c-3.08,2.69-5.8,4-8.32,4c-2.01,0-3.67-0.42-4.95-1.25c-1.26-0.82-2.2-1.87-2.79-3.11
			c-0.57-1.21-0.83-2.56-0.76-4.02c0.05-1.33,0.3-2.67,0.74-3.98c0.57-1.61,1.35-2.96,2.33-4.06c0.82-0.92,1.64-1.79,2.43-2.58
			l0.17-0.15c0.42-0.33,0.84-0.65,1.26-0.96c-0.23-0.12-0.54-0.25-0.92-0.39c-0.46-0.17-1.38-0.38-3.09-0.38
			c-1.92,0-3.8,0.38-5.59,1.13c-1.8,0.75-3.42,1.82-4.81,3.17c-1.38,1.34-2.51,2.98-3.35,4.88c-0.85,1.9-1.32,4.03-1.4,6.34
			c-0.09,2.08,0.18,4.23,0.79,6.39c0.59,2.1,1.61,4.04,3.04,5.77c1.43,1.72,3.37,3.18,5.76,4.33c2.38,1.15,5.46,1.73,9.14,1.73
			c3.67,0,7.62-1.42,11.74-4.23c4.33-2.95,8.75-6.91,13.15-11.77c4.44-4.91,8.88-10.63,13.19-17c4.34-6.41,8.52-13.1,12.43-19.89
			c3.92-6.81,7.61-13.67,10.95-20.4l2.91-5.22l7.73-12.72l0,0c0,0-1.06,11.83-1.06,11.83s-1.11,12.97-1.58,17.92
			c-0.47,4.9-0.71,9.57-0.71,13.89c0,4.21,0.32,7.66,0.94,10.25c0.72,3.16,1.59,5.65,2.59,7.42c0.97,1.74,2,3.07,3.05,3.95
			c0.99,0.84,1.95,1.37,2.88,1.58c1.08,0.25,2.04,0.38,2.84,0.38c1.18,0,2.36-0.13,3.5-0.38c0.81-0.18,1.52-0.54,2.15-1.1
			c0.05-0.23,0.12-0.74,0.15-1.72c0.05-1.65,0.19-3.85,0.44-6.55c0.24-2.7,0.7-5.94,1.38-9.62c0.68-3.7,1.81-7.8,3.37-12.17
			c2.5-6.94,5.24-13.09,8.14-18.31c2.88-5.19,5.62-9.63,8.12-13.19c3.02-4.09,6.02-7.63,8.94-10.55L168.21,92.54z"/>
	</g>
	<path class="st7" d="M180.23,128.6c0.52,0.06,1.27,0.28,2.23,0.65c0.96,0.38,1.88,0.84,2.75,1.4c0.87,0.55,1.6,1.17,2.18,1.83
		c0.58,0.67,0.76,1.32,0.52,1.96c-0.12,0.41-0.76,1.82-1.92,4.24c-1.17,2.42-2.97,6.01-5.41,10.78c-1.22,2.45-2.27,4.82-3.14,7.12
		c-0.87,2.3-1.57,4.37-2.1,6.2c-0.52,1.83-0.87,3.32-1.05,4.45c-0.17,1.14-0.2,1.76-0.09,1.88c0.06,0.06,0.42-0.33,1.09-1.18
		c0.67-0.84,1.51-1.97,2.53-3.36c1.02-1.4,2.12-2.98,3.32-4.76c1.19-1.77,2.34-3.54,3.45-5.28c0.81-1.34,1.66-2.66,2.53-3.97
		c0.87-1.31,1.63-2.55,2.27-3.71c0.81-1.28,1.6-2.53,2.36-3.75c0.7,0.35,1.28,0.73,1.75,1.14c0.47,0.29,0.83,0.66,1.09,1.09
		c0.26,0.44,0.25,0.89-0.04,1.35c-0.17,0.29-0.68,1.19-1.53,2.71c-0.84,1.51-1.91,3.3-3.19,5.37c-1.28,2.07-2.71,4.26-4.28,6.59
		c-1.57,2.33-3.16,4.48-4.76,6.46c-1.6,1.98-3.17,3.61-4.72,4.89c-1.54,1.28-2.9,1.92-4.06,1.92c-1.75,0-3.22-0.58-4.41-1.75
		c-1.19-1.16-2.01-2.76-2.44-4.8c-0.44-2.04-0.42-4.47,0.04-7.29c0.47-2.82,1.48-5.92,3.06-9.3c3.2-7.04,5.73-12.38,7.6-16.02
		c1.86-3.64,3.03-5.81,3.49-6.51C179.59,128.72,179.88,128.6,180.23,128.6z"/>
	<path class="st7" d="M209.93,128.42c1.51,0,2.75,0.22,3.71,0.66c0.96,0.44,1.72,1,2.27,1.7c0.55,0.7,0.96,1.5,1.22,2.4
		c0.26,0.9,0.39,1.85,0.39,2.84c0.47-0.64,0.86-1.19,1.18-1.66c0.32-0.47,0.63-0.84,0.92-1.14c0.29-0.35,0.55-0.64,0.79-0.87
		c0.06-0.06,0.2-0.09,0.44-0.09c0.47,0,1.05,0.19,1.75,0.57c0.7,0.38,1.38,0.8,2.05,1.27c0.67,0.47,1.24,0.95,1.7,1.44
		c0.47,0.5,0.73,0.83,0.79,1c0.06,0.17-0.02,0.44-0.22,0.79c-0.2,0.35-0.55,0.92-1.05,1.7c-0.5,0.79-1.17,1.88-2.01,3.27
		c-0.84,1.4-1.94,3.23-3.27,5.5c-1.28,2.27-2.39,4.61-3.32,7.03c-0.93,2.42-1.69,4.6-2.27,6.55c-0.58,1.95-0.98,3.58-1.18,4.89
		c-0.2,1.31-0.25,2.02-0.13,2.14c0.06,0.06,0.42-0.33,1.09-1.18c0.67-0.84,1.5-1.95,2.49-3.32c0.99-1.37,2.07-2.93,3.23-4.67
		c1.16-1.75,2.3-3.49,3.41-5.24c0.81-1.28,1.64-2.58,2.49-3.89c0.84-1.31,1.62-2.52,2.31-3.62c0.76-1.28,1.51-2.53,2.27-3.75
		c0.7,0.35,1.28,0.7,1.75,1.05c0.41,0.35,0.74,0.74,1,1.18c0.26,0.44,0.25,0.89-0.04,1.35c-0.17,0.29-0.67,1.18-1.48,2.66
		c-0.82,1.48-1.86,3.25-3.14,5.28c-1.28,2.04-2.69,4.21-4.24,6.51c-1.54,2.3-3.1,4.41-4.67,6.33c-1.57,1.92-3.11,3.52-4.63,4.8
		c-1.51,1.28-2.85,1.92-4.02,1.92c-2.68,0-4.56-1.21-5.63-3.62c-1.08-2.41-1.18-5.69-0.31-9.82c-1.05,1.28-2.17,2.59-3.36,3.93
		c-1.19,1.34-2.42,2.56-3.67,3.67c-1.25,1.11-2.5,2.01-3.75,2.71c-1.25,0.7-2.4,1.05-3.45,1.05c-1.51,0-2.66-0.63-3.45-1.88
		c-0.79-1.25-1.22-2.88-1.31-4.89s0.12-4.32,0.61-6.94c0.49-2.62,1.24-5.28,2.23-7.99c0.99-2.71,2.2-5.36,3.62-7.95
		c1.43-2.59,3.03-4.89,4.8-6.9c1.78-2.01,3.68-3.64,5.72-4.89C205.59,129.05,207.71,128.42,209.93,128.42z M213.86,141.7
		c0.17-0.81,0.31-1.64,0.39-2.49c0.09-0.84,0.12-1.6,0.09-2.27c-0.03-0.67-0.16-1.21-0.39-1.62c-0.23-0.41-0.61-0.61-1.14-0.61
		c-1.11,0-2.37,0.74-3.8,2.23c-1.43,1.48-2.84,3.32-4.24,5.5c-1.4,2.18-2.74,4.57-4.02,7.16c-1.28,2.59-2.34,4.98-3.19,7.16
		c-0.84,2.18-1.4,4.02-1.66,5.5c-0.26,1.48-0.13,2.23,0.39,2.23c0.41,0,1.06-0.36,1.96-1.09c0.9-0.73,1.91-1.63,3.01-2.71
		c1.11-1.08,2.23-2.23,3.36-3.45c1.14-1.22,2.14-2.33,3.01-3.32c0.64-1.92,1.57-4.02,2.79-6.29S212.81,143.39,213.86,141.7z"/>
	<path class="st7" d="M240.03,127.2c0.35,0,0.87,0.06,1.56,0.17c0.42,0.06,1.15,0.34,2.19,0.83c1.04,0.5,2.03,1.09,2.97,1.79
		c0.94,0.7,1.72,1.47,2.34,2.31c0.63,0.84,0.73,1.67,0.31,2.49c-0.14,0.35-0.42,0.95-0.83,1.79c-0.42,0.84-0.9,1.82-1.46,2.93
		c-0.56,1.11-1.15,2.3-1.77,3.58c-0.62,1.28-1.25,2.56-1.87,3.84c-1.53,3.03-3.19,6.32-5,9.87c4.03-5.47,7.77-10.33,11.25-14.58
		c1.46-1.8,2.93-3.58,4.43-5.33c1.49-1.75,2.88-3.3,4.17-4.67c1.28-1.37,2.45-2.46,3.49-3.27c1.04-0.81,1.8-1.22,2.29-1.22
		c1.6,0,3.05,0.29,4.37,0.87c1.32,0.58,2.48,1.28,3.49,2.1c1.01,0.82,1.8,1.65,2.4,2.49c0.59,0.84,0.92,1.56,0.99,2.14
		c0,0.29-0.12,0.79-0.36,1.48c-0.24,0.7-0.57,1.51-0.99,2.44c-0.42,0.93-0.88,1.95-1.41,3.06c-0.52,1.11-1.06,2.24-1.61,3.41
		c-1.32,2.62-2.81,5.5-4.48,8.64c3.89-4.89,7.5-9.26,10.83-13.1c1.39-1.63,2.78-3.22,4.17-4.76c1.39-1.54,2.69-2.92,3.91-4.15
		c1.21-1.22,2.26-2.21,3.12-2.97c0.87-0.76,1.51-1.14,1.93-1.14c0.76,0,1.73,0.16,2.92,0.48c1.18,0.32,2.33,0.79,3.44,1.4
		c1.11,0.61,2.07,1.31,2.86,2.1c0.8,0.79,1.23,1.67,1.3,2.66c0.07,0.64-0.24,1.88-0.94,3.71c-0.69,1.83-1.53,3.96-2.5,6.37
		c-0.97,2.42-2.03,4.93-3.18,7.55c-1.15,2.62-2.19,5.04-3.12,7.25c-0.94,2.21-1.67,4.05-2.19,5.5c-0.52,1.46-0.68,2.21-0.47,2.27
		c0.35,0.06,0.88-0.25,1.61-0.92c0.73-0.67,1.58-1.57,2.55-2.71c0.97-1.14,2.05-2.47,3.23-4.02c1.18-1.54,2.4-3.16,3.65-4.85
		c1.04-1.4,2.08-2.79,3.12-4.19c1.04-1.4,2.01-2.68,2.92-3.84c0.97-1.34,1.91-2.62,2.81-3.84c0.83,0.29,1.53,0.64,2.08,1.05
		c0.48,0.29,0.89,0.66,1.2,1.09c0.31,0.44,0.29,0.89-0.05,1.35c-0.28,0.35-0.88,1.24-1.82,2.66c-0.94,1.43-2.08,3.09-3.44,4.98
		c-1.35,1.89-2.86,3.9-4.53,6.03c-1.67,2.13-3.32,4.08-4.95,5.85c-1.63,1.78-3.19,3.25-4.69,4.41c-1.49,1.17-2.8,1.75-3.91,1.75
		c-2.01,0-3.8-0.22-5.36-0.66c-1.56-0.44-2.88-0.97-3.96-1.62c-1.08-0.64-1.94-1.31-2.6-2.01c-0.66-0.7-1.06-1.34-1.2-1.92
		c-0.07-0.29,0-0.84,0.21-1.66c0.21-0.81,0.48-1.82,0.83-3.01c0.35-1.19,0.78-2.49,1.3-3.89c0.52-1.4,1.06-2.79,1.61-4.19
		c1.25-3.32,2.71-6.99,4.37-11c-1.25,1.11-2.69,2.62-4.32,4.54c-1.63,1.92-3.33,3.99-5.1,6.2c-1.77,2.21-3.52,4.45-5.26,6.72
		c-1.74,2.27-3.35,4.34-4.84,6.2c-1.49,1.86-2.8,3.38-3.91,4.54c-1.11,1.17-1.88,1.75-2.29,1.75c-0.62,0-1.46-0.17-2.5-0.52
		c-1.04-0.35-2.08-0.8-3.12-1.35c-1.04-0.55-1.98-1.18-2.81-1.88c-0.83-0.7-1.39-1.43-1.67-2.18c-0.14-0.35-0.1-0.99,0.1-1.92
		c0.21-0.93,0.52-2.04,0.94-3.32c0.42-1.28,0.92-2.66,1.51-4.15c0.59-1.48,1.2-2.95,1.82-4.41c1.53-3.49,3.3-7.34,5.31-11.53
		c-0.62,0.47-1.63,1.56-3.02,3.27c-1.39,1.72-2.93,3.71-4.63,5.98c-1.7,2.27-3.49,4.69-5.36,7.25c-1.87,2.56-3.65,4.9-5.31,7.03
		c-1.67,2.13-3.12,3.89-4.37,5.28c-1.25,1.4-2.08,2.1-2.5,2.1c-0.69,0-1.53-0.28-2.5-0.83c-0.97-0.55-1.91-1.21-2.81-1.97
		c-0.9-0.76-1.7-1.57-2.4-2.44c-0.69-0.87-1.08-1.6-1.15-2.18c-0.07-0.41,0.19-1.5,0.78-3.27c0.59-1.78,1.37-3.91,2.34-6.42
		c0.97-2.5,2.01-5.18,3.12-8.03c1.11-2.85,2.19-5.53,3.23-8.03c1.04-2.5,1.94-4.66,2.71-6.46c0.76-1.8,1.25-2.91,1.46-3.32
		c0.35-0.7,0.8-1.18,1.35-1.44C238.91,127.33,239.47,127.2,240.03,127.2z"/>
	<path class="st7" d="M313.8,138.97c0.26,0,0.65,0.04,1.16,0.13c0.31,0.04,0.85,0.25,1.63,0.62c0.77,0.37,1.51,0.81,2.21,1.33
		c0.7,0.52,1.28,1.09,1.74,1.72c0.46,0.63,0.54,1.24,0.23,1.85c-0.1,0.26-0.31,0.7-0.62,1.33c-0.31,0.63-0.67,1.35-1.08,2.17
		c-0.41,0.82-0.85,1.71-1.32,2.66c-0.46,0.95-0.93,1.91-1.39,2.86c-1.14,2.25-2.37,4.7-3.72,7.34c2.99-4.07,5.78-7.68,8.36-10.84
		c1.08-1.34,2.18-2.66,3.29-3.96c1.11-1.3,2.14-2.46,3.1-3.47c0.95-1.02,1.82-1.83,2.59-2.43c0.77-0.61,1.34-0.91,1.7-0.91
		c1.19,0,2.27,0.22,3.25,0.65c0.98,0.43,1.84,0.95,2.59,1.56c0.75,0.61,1.34,1.22,1.78,1.85c0.44,0.63,0.68,1.16,0.74,1.59
		c0,0.22-0.09,0.58-0.27,1.1c-0.18,0.52-0.43,1.13-0.74,1.82c-0.31,0.69-0.66,1.45-1.05,2.27c-0.39,0.82-0.79,1.67-1.2,2.53
		c-0.98,1.95-2.09,4.09-3.33,6.43c2.89-3.64,5.57-6.88,8.05-9.74c1.03-1.21,2.06-2.39,3.1-3.54c1.03-1.15,2-2.17,2.9-3.08
		c0.9-0.91,1.68-1.64,2.32-2.21c0.64-0.56,1.12-0.84,1.43-0.84c0.57,0,1.29,0.12,2.17,0.36c0.88,0.24,1.73,0.58,2.56,1.04
		c0.83,0.45,1.54,0.97,2.13,1.56c0.59,0.58,0.92,1.24,0.97,1.98c0.05,0.48-0.18,1.4-0.7,2.76c-0.52,1.36-1.14,2.94-1.86,4.74
		c-0.72,1.8-1.51,3.67-2.36,5.62c-0.85,1.95-1.63,3.74-2.32,5.39c-0.7,1.65-1.24,3.01-1.63,4.09c-0.39,1.08-0.5,1.65-0.35,1.69
		c0.26,0.04,0.66-0.18,1.2-0.68c0.54-0.5,1.17-1.17,1.9-2.01c0.72-0.84,1.52-1.84,2.4-2.99c0.88-1.15,1.78-2.35,2.71-3.6
		c0.77-1.04,1.55-2.08,2.32-3.12c0.77-1.04,1.5-1.99,2.17-2.86c0.72-0.99,1.42-1.95,2.09-2.86c0.62,0.22,1.14,0.48,1.55,0.78
		c0.36,0.22,0.66,0.49,0.89,0.81c0.23,0.32,0.22,0.66-0.04,1.01c-0.21,0.26-0.66,0.92-1.35,1.98c-0.7,1.06-1.55,2.29-2.56,3.7
		c-1.01,1.41-2.13,2.9-3.37,4.48c-1.24,1.58-2.47,3.03-3.68,4.35c-1.21,1.32-2.37,2.41-3.48,3.28c-1.11,0.87-2.08,1.3-2.9,1.3
		c-1.5,0-2.83-0.16-3.99-0.49c-1.16-0.32-2.14-0.72-2.94-1.2c-0.8-0.48-1.45-0.97-1.94-1.49c-0.49-0.52-0.79-0.99-0.89-1.43
		c-0.05-0.22,0-0.63,0.15-1.23c0.15-0.61,0.36-1.35,0.62-2.24c0.26-0.89,0.58-1.85,0.97-2.89c0.39-1.04,0.79-2.08,1.2-3.12
		c0.93-2.47,2.01-5.19,3.25-8.18c-0.93,0.82-2,1.95-3.21,3.38c-1.21,1.43-2.48,2.97-3.79,4.61c-1.32,1.65-2.62,3.31-3.91,5
		c-1.29,1.69-2.49,3.22-3.6,4.61c-1.11,1.39-2.08,2.51-2.9,3.38c-0.83,0.87-1.39,1.3-1.7,1.3c-0.46,0-1.08-0.13-1.86-0.39
		c-0.77-0.26-1.55-0.59-2.32-1.01c-0.77-0.41-1.47-0.88-2.09-1.4c-0.62-0.52-1.03-1.06-1.24-1.62c-0.1-0.26-0.08-0.74,0.08-1.43
		c0.15-0.69,0.39-1.51,0.7-2.47c0.31-0.95,0.68-1.98,1.12-3.08c0.44-1.1,0.89-2.2,1.35-3.28c1.13-2.6,2.45-5.45,3.95-8.57
		c-0.46,0.35-1.21,1.16-2.25,2.43c-1.03,1.28-2.18,2.76-3.45,4.45c-1.27,1.69-2.59,3.48-3.99,5.39c-1.39,1.9-2.71,3.65-3.95,5.23
		c-1.24,1.58-2.32,2.89-3.25,3.93c-0.93,1.04-1.55,1.56-1.86,1.56c-0.52,0-1.14-0.2-1.86-0.62c-0.72-0.41-1.42-0.9-2.09-1.46
		c-0.67-0.56-1.27-1.17-1.78-1.82c-0.52-0.65-0.8-1.19-0.85-1.62c-0.05-0.3,0.14-1.11,0.58-2.43c0.44-1.32,1.02-2.91,1.74-4.77
		c0.72-1.86,1.5-3.85,2.32-5.97c0.83-2.12,1.63-4.11,2.4-5.97c0.77-1.86,1.44-3.46,2.01-4.8c0.57-1.34,0.93-2.16,1.08-2.47
		c0.26-0.52,0.59-0.88,1.01-1.07C312.97,139.07,313.39,138.97,313.8,138.97z"/>
	<path class="st7" d="M370.61,143.85c0.22,0,0.55,0.04,0.99,0.11c0.26,0.04,0.73,0.21,1.39,0.53c0.66,0.31,1.29,0.69,1.89,1.14
		c0.6,0.44,1.09,0.93,1.49,1.47c0.4,0.54,0.46,1.06,0.2,1.58c-0.09,0.22-0.26,0.6-0.53,1.14c-0.26,0.54-0.57,1.16-0.93,1.86
		c-0.35,0.7-0.73,1.46-1.13,2.27c-0.4,0.81-0.79,1.63-1.19,2.44c-0.97,1.92-2.03,4.01-3.18,6.27c2.56-3.48,4.94-6.57,7.15-9.27
		c0.93-1.15,1.86-2.28,2.81-3.38c0.95-1.11,1.83-2.1,2.65-2.97c0.82-0.87,1.56-1.56,2.22-2.08c0.66-0.52,1.15-0.78,1.46-0.78
		c1.01,0,1.94,0.19,2.78,0.56c0.84,0.37,1.58,0.81,2.22,1.33c0.64,0.52,1.15,1.05,1.52,1.58c0.37,0.54,0.58,0.99,0.63,1.36
		c0,0.19-0.08,0.5-0.23,0.94c-0.16,0.44-0.36,0.96-0.63,1.55c-0.26,0.59-0.56,1.24-0.89,1.94c-0.33,0.7-0.67,1.42-1.03,2.16
		c-0.84,1.66-1.79,3.5-2.84,5.49c2.47-3.11,4.76-5.88,6.88-8.32c0.88-1.03,1.76-2.04,2.65-3.02c0.88-0.98,1.71-1.86,2.48-2.64
		c0.77-0.78,1.43-1.41,1.99-1.89c0.55-0.48,0.96-0.72,1.22-0.72c0.49,0,1.1,0.1,1.85,0.31c0.75,0.2,1.48,0.5,2.18,0.89
		c0.71,0.39,1.31,0.83,1.82,1.33c0.51,0.5,0.78,1.06,0.83,1.69c0.04,0.41-0.16,1.19-0.59,2.36c-0.44,1.17-0.97,2.52-1.59,4.05
		c-0.62,1.54-1.29,3.13-2.02,4.8c-0.73,1.66-1.39,3.2-1.98,4.61c-0.6,1.41-1.06,2.57-1.39,3.5c-0.33,0.93-0.43,1.41-0.3,1.44
		c0.22,0.04,0.56-0.16,1.03-0.58c0.46-0.42,1-1,1.62-1.72c0.62-0.72,1.3-1.57,2.05-2.55c0.75-0.98,1.52-2.01,2.32-3.08
		c0.66-0.89,1.32-1.78,1.99-2.66c0.66-0.89,1.28-1.7,1.85-2.44c0.62-0.85,1.21-1.66,1.79-2.44c0.53,0.19,0.97,0.41,1.32,0.67
		c0.31,0.19,0.56,0.42,0.76,0.69c0.2,0.28,0.19,0.56-0.03,0.86c-0.18,0.22-0.56,0.79-1.16,1.69c-0.6,0.91-1.32,1.96-2.18,3.16
		c-0.86,1.2-1.82,2.48-2.88,3.83c-1.06,1.35-2.11,2.59-3.14,3.72c-1.04,1.13-2.03,2.06-2.98,2.8c-0.95,0.74-1.78,1.11-2.48,1.11
		c-1.28,0-2.42-0.14-3.41-0.42c-0.99-0.28-1.83-0.62-2.52-1.03c-0.68-0.41-1.23-0.83-1.65-1.28c-0.42-0.44-0.67-0.85-0.76-1.22
		c-0.04-0.18,0-0.54,0.13-1.05c0.13-0.52,0.31-1.16,0.53-1.91c0.22-0.76,0.5-1.58,0.83-2.47c0.33-0.89,0.67-1.78,1.03-2.66
		c0.79-2.11,1.72-4.44,2.78-6.99c-0.79,0.7-1.71,1.66-2.75,2.89c-1.04,1.22-2.12,2.53-3.24,3.94c-1.12,1.41-2.24,2.83-3.34,4.27
		c-1.1,1.44-2.13,2.76-3.08,3.94c-0.95,1.18-1.78,2.15-2.48,2.89c-0.71,0.74-1.19,1.11-1.46,1.11c-0.4,0-0.93-0.11-1.59-0.33
		c-0.66-0.22-1.32-0.51-1.98-0.86c-0.66-0.35-1.26-0.75-1.79-1.19c-0.53-0.44-0.88-0.91-1.06-1.39c-0.09-0.22-0.07-0.63,0.07-1.22
		c0.13-0.59,0.33-1.29,0.6-2.11c0.26-0.81,0.58-1.69,0.96-2.64c0.37-0.94,0.76-1.88,1.16-2.8c0.97-2.22,2.09-4.66,3.37-7.32
		c-0.4,0.3-1.04,0.99-1.92,2.08c-0.88,1.09-1.86,2.36-2.94,3.8c-1.08,1.44-2.22,2.98-3.41,4.61c-1.19,1.63-2.32,3.12-3.37,4.47
		c-1.06,1.35-1.98,2.47-2.78,3.36c-0.79,0.89-1.32,1.33-1.59,1.33c-0.44,0-0.97-0.18-1.59-0.53c-0.62-0.35-1.21-0.77-1.79-1.25
		c-0.57-0.48-1.08-1-1.52-1.55c-0.44-0.56-0.68-1.02-0.73-1.39c-0.04-0.26,0.12-0.95,0.5-2.08c0.37-1.13,0.87-2.49,1.49-4.08
		c0.62-1.59,1.28-3.29,1.99-5.1c0.71-1.81,1.39-3.51,2.05-5.1c0.66-1.59,1.23-2.96,1.72-4.11c0.49-1.15,0.79-1.85,0.93-2.11
		c0.22-0.44,0.51-0.75,0.86-0.92C369.9,143.94,370.25,143.85,370.61,143.85z"/>
</g>
<g>
	<path class="st7" d="M185.11,121.89c-0.12-0.64,0.04-1.47,0.48-2.49c0.44-1.02,0.97-2.05,1.62-3.1c0.64-1.16,1.43-2.41,2.36-3.75
		c0.58-0.76,1.28-1.14,2.1-1.14c0.52,0,1.28,0.15,2.27,0.44c0.52,0.17,1.12,0.45,1.79,0.83c0.67,0.38,1.27,0.8,1.79,1.27
		c0.52,0.47,0.92,0.92,1.18,1.35c0.26,0.44,0.28,0.8,0.04,1.09c-0.93,1.34-1.7,2.46-2.31,3.36c-0.61,0.9-1.15,1.7-1.62,2.4
		c-0.47,0.7-0.92,1.34-1.35,1.92c-0.44,0.58-0.92,1.19-1.44,1.83c-0.23,0.35-0.64,0.52-1.22,0.52c-0.52,0-1.09-0.14-1.7-0.44
		c-0.61-0.29-1.21-0.66-1.79-1.09c-0.58-0.44-1.06-0.93-1.44-1.48C185.47,122.87,185.22,122.36,185.11,121.89z"/>
	<path class="st0" d="M190.78,127.93c-0.75,0-1.54-0.2-2.35-0.58c-0.69-0.33-1.38-0.75-2.04-1.24c-0.71-0.53-1.31-1.15-1.78-1.84
		c-0.48-0.7-0.8-1.36-0.96-2.01l-0.02-0.09c-0.17-0.94,0.02-2.04,0.58-3.35c0.47-1.09,1.05-2.2,1.71-3.29
		c0.62-1.14,1.44-2.45,2.41-3.83c1.14-1.48,2.43-1.78,3.33-1.78c0.67,0,1.55,0.16,2.69,0.5c0.67,0.22,1.34,0.53,2.1,0.96
		c0.77,0.43,1.46,0.92,2.05,1.45c0.65,0.58,1.13,1.13,1.47,1.7c0.58,0.97,0.56,2.02-0.07,2.8c-0.87,1.26-1.64,2.37-2.25,3.27
		c-0.61,0.9-1.14,1.7-1.61,2.39c-0.49,0.73-0.96,1.4-1.4,1.99c-0.44,0.58-0.92,1.2-1.44,1.84
		C192.83,127.34,192.11,127.93,190.78,127.93z M186.58,121.58c0.06,0.2,0.2,0.53,0.51,0.99c0.28,0.42,0.65,0.8,1.1,1.13
		c0.5,0.38,1.02,0.69,1.53,0.94c0.41,0.19,0.76,0.29,1.06,0.29c0.03,0,0.06,0,0.09,0c0.5-0.61,0.96-1.2,1.38-1.75
		c0.42-0.56,0.86-1.18,1.31-1.85c0.47-0.7,1.01-1.5,1.62-2.41c0.56-0.83,1.26-1.84,2.09-3.04c-0.19-0.26-0.44-0.53-0.75-0.81
		c-0.44-0.39-0.95-0.75-1.53-1.08c-0.58-0.33-1.1-0.57-1.52-0.71c-1.06-0.31-1.58-0.36-1.8-0.36c-0.24,0-0.53,0.07-0.91,0.55
		c-0.86,1.24-1.62,2.46-2.23,3.56c-0.63,1.03-1.14,2.01-1.55,2.97C186.57,120.92,186.56,121.39,186.58,121.58z M197.5,115.53
		c-0.01,0.01-0.02,0.03-0.03,0.04C197.48,115.56,197.49,115.55,197.5,115.53z"/>
</g>
</svg>
